<svg xmlns="http://www.w3.org/2000/svg" viewBox="0 0 72.48 48.8"><defs><style>.cls-1,.cls-2{fill:#fff;stroke-linecap:round;stroke-linejoin:round;stroke-width:3px;}.cls-1{stroke:#000;}.cls-2{stroke:#e13887;}</style></defs><g id="레이어_2" data-name="레이어 2"><g id="Layer_2" data-name="Layer 2"><rect class="cls-1" x="1.5" y="3.43" width="69.48" height="43.87"/><path class="cls-1" d="M8.79,1.5H30.34c3.25,0,5.89,2.3,5.89,5.15v39.1c0-2.84-2.64-5.14-5.89-5.14H8.4V1.52Z"/><path class="cls-1" d="M63.69,1.5H42.14c-3.25,0-5.89,2.3-5.89,5.15v39.1c0-2.84,2.64-5.14,5.89-5.14H64.08V1.52Z"/><path class="cls-2" d="M54.54,13a3.79,3.79,0,0,1-3.79,3.8h0A3.79,3.79,0,0,1,47,13h0A3.79,3.79,0,0,1,50.75,9.2h0A3.79,3.79,0,0,1,54.54,13Z"/><line class="cls-2" x1="18.35" y1="12.5" x2="23.29" y2="12.5"/><line class="cls-2" x1="18.35" y1="20.41" x2="23.29" y2="20.41"/><polyline class="cls-2" points="47.06 25.06 55.07 25.06 55.07 31.89"/></g></g></svg>