<svg xmlns="http://www.w3.org/2000/svg" viewBox="0 0 50.43 60.61"><defs><style>.cls-1,.cls-2{fill:#fff;stroke-linecap:round;stroke-linejoin:round;stroke-width:3px;}.cls-1{stroke:#000;}.cls-2{stroke:#e13887;}</style></defs><g id="레이어_2" data-name="레이어 2"><g id="Layer_2" data-name="Layer 2"><path class="cls-1" d="M29.57,8.92H12.2V38H8.74a7.24,7.24,0,0,0-7.22,6.78A5.79,5.79,0,0,0,7.28,50.1H48.93V8.92Z"/><path class="cls-1" d="M1.5,45.24c0-.16,0-.31,0-.46s0-.31,0-.46Z"/><path class="cls-1" d="M8.74,1.5A7.24,7.24,0,0,0,1.5,8.74V44.32c0,.15,0,.3,0,.46A7.23,7.23,0,0,1,8.74,38H12.2V1.5Z"/><polyline class="cls-2" points="22.45 42.08 22.45 44.4 22.45 59.11 30.34 50.58 38.23 59.11 38.23 44.4 38.23 42.08"/><path class="cls-2" d="M30.34,24.05A10.82,10.82,0,1,0,41.16,34.87,10.82,10.82,0,0,0,30.34,24.05Z"/></g></g></svg>