<svg xmlns="http://www.w3.org/2000/svg" viewBox="0 0 60.93 42.64"><defs><style>.cls-1,.cls-2,.cls-4{fill:#fff;}.cls-1,.cls-3{stroke:#000;}.cls-1,.cls-3,.cls-4{stroke-linecap:round;stroke-linejoin:round;stroke-width:3px;}.cls-3{fill:none;}.cls-4{stroke:#ec268f;}</style></defs><g id="레이어_2" data-name="레이어 2"><g id="Layer_2" data-name="Layer 2"><rect class="cls-1" x="5.82" y="26.41" width="7.28" height="14.73"/><path class="cls-1" d="M12.66,9.6h-9A2,2,0,0,0,1.5,11.41V28.24a2,2,0,0,0,2.15,1.82h9a2.72,2.72,0,0,0,.42,0V9.64A1.87,1.87,0,0,0,12.66,9.6Z"/><path class="cls-2" d="M43.56,1.69l-29.46,7a3.09,3.09,0,0,0-1,.91h-.05V30h.05a3,3,0,0,0,1,.92l29.46,7c.87.48,1.59,0,1.59-1V2.65A1,1,0,0,0,43.56,1.69Z"/><path class="cls-3" d="M43.56,1.69l-29.46,7a3.09,3.09,0,0,0-1,.91h-.05V30h.05a3,3,0,0,0,1,.92l29.46,7c.87.48,1.59,0,1.59-1V2.65A1,1,0,0,0,43.56,1.69Z"/><line class="cls-4" x1="59.43" y1="19.83" x2="55.97" y2="19.83"/><line class="cls-4" x1="56.81" y1="10.05" x2="53.81" y2="11.78"/><line class="cls-4" x1="53.81" y1="27.88" x2="56.81" y2="29.61"/></g></g></svg>