<svg xmlns="http://www.w3.org/2000/svg" viewBox="0 0 42.22 59.57"><defs><style>.cls-1,.cls-2{fill:#fff;stroke-linecap:round;stroke-linejoin:round;stroke-width:3px;}.cls-1{stroke:#000;}.cls-2{stroke:#e13887;}</style></defs><g id="레이어_2" data-name="레이어 2"><g id="Layer_2" data-name="Layer 2"><path class="cls-1" d="M16,43.05C9.61,44.08,5,47,5,50.35c0,4.27,7.19,7.72,16.07,7.72s16.07-3.45,16.07-7.72c0-3.39-4.58-6.27-10.93-7.3"/><path class="cls-2" d="M7.24,7.24A19.62,19.62,0,0,0,7.24,35L21.11,48.84,35,35A19.61,19.61,0,0,0,7.24,7.24Z"/><path class="cls-2" d="M27.7,20.62A6.59,6.59,0,1,1,21.11,14,6.59,6.59,0,0,1,27.7,20.62Z"/></g></g></svg>