<svg xmlns="http://www.w3.org/2000/svg" viewBox="0 0 56.03 57.83"><defs><style>.cls-1{fill:none;}.cls-1,.cls-2{stroke:#000;}.cls-1,.cls-2,.cls-3{stroke-linecap:round;stroke-linejoin:round;stroke-width:3px;}.cls-2,.cls-3{fill:#fff;}.cls-3{stroke:#e13887;}</style></defs><g id="레이어_2" data-name="레이어 2"><g id="Layer_2" data-name="Layer 2"><path class="cls-1" d="M19,12.19V5A3.46,3.46,0,0,1,22.5,1.5h11A3.47,3.47,0,0,1,37,5v7.22"/><path class="cls-2" d="M49.94,29.39H6.09a4.6,4.6,0,0,1-4.59-4.6v27a4.59,4.59,0,0,0,4.59,4.59H49.94a4.58,4.58,0,0,0,4.59-4.59V24.79A4.59,4.59,0,0,1,49.94,29.39Z"/><rect class="cls-2" x="1.5" y="12.33" width="53.03" height="17.06" rx="4.59"/><path class="cls-3" d="M16,32.2A2.91,2.91,0,0,1,13,35.11h0a2.91,2.91,0,0,1-2.91-2.91V26.37A2.91,2.91,0,0,1,13,23.46h0A2.91,2.91,0,0,1,16,26.37Z"/><path class="cls-3" d="M45.9,32.2A2.91,2.91,0,0,1,43,35.11h0a2.91,2.91,0,0,1-2.91-2.91V26.37A2.91,2.91,0,0,1,43,23.46h0a2.91,2.91,0,0,1,2.91,2.91Z"/></g></g></svg>