<svg xmlns="http://www.w3.org/2000/svg" viewBox="0 0 52.56 45.52"><defs><style>.cls-1,.cls-2{fill:#fff;}.cls-1,.cls-3{stroke:#000;}.cls-1,.cls-2,.cls-3{stroke-linecap:round;stroke-linejoin:round;stroke-width:3px;}.cls-2{stroke:#e13887;}.cls-3{fill:none;}</style></defs><g id="레이어_2" data-name="레이어 2"><g id="Layer_2" data-name="Layer 2"><line class="cls-1" x1="41.5" y1="40.03" x2="27.59" y2="40.03"/><circle class="cls-2" cx="26.56" cy="40.03" r="3"/><path class="cls-3" d="M6.62,26.67V21.15A19.66,19.66,0,0,1,26.28,1.5h0A19.65,19.65,0,0,1,45.93,21.15v5.52"/><path class="cls-1" d="M1.5,33.86A10.17,10.17,0,0,0,11.41,44V23.7A10.16,10.16,0,0,0,1.5,33.86Z"/><path class="cls-1" d="M51.06,33.86A10.17,10.17,0,0,1,41.15,44V23.7A10.16,10.16,0,0,1,51.06,33.86Z"/></g></g></svg>