<svg xmlns="http://www.w3.org/2000/svg" viewBox="0 0 60.42 51.49"><defs><style>.cls-1,.cls-2{fill:#fff;stroke-linecap:round;stroke-linejoin:round;stroke-width:3px;}.cls-1{stroke:#000;}.cls-2{stroke:#e13887;}</style></defs><g id="레이어_2" data-name="레이어 2"><g id="Layer_2" data-name="Layer 2"><path class="cls-1" d="M17.17,5.29H9.1a3.72,3.72,0,0,0-1.45.3,3.76,3.76,0,0,0-1.18.79,3.72,3.72,0,0,0-.8,1.19A3.64,3.64,0,0,0,5.38,9V44.19H55V9a3.65,3.65,0,0,0-.3-1.45,3.61,3.61,0,0,0-2-2,3.65,3.65,0,0,0-1.45-.3H43.24"/><path class="cls-1" d="M1.5,38.4v8.33A3.17,3.17,0,0,0,1.76,48a3,3,0,0,0,.7,1,3,3,0,0,0,1,.7A3.17,3.17,0,0,0,4.76,50h50.9a3.17,3.17,0,0,0,1.27-.26A3.32,3.32,0,0,0,58.66,48a3.17,3.17,0,0,0,.26-1.27V38.4H1.5Z"/><rect class="cls-2" x="23.69" y="1.5" width="13.03" height="13.03" rx="2.79"/></g></g></svg>