<svg xmlns="http://www.w3.org/2000/svg" viewBox="0 0 44.19 52.48"><defs><style>.cls-1,.cls-2{fill:#fff;stroke-linecap:round;stroke-linejoin:round;stroke-width:3px;}.cls-1{stroke:#000;}.cls-2{stroke:#e13887;}</style></defs><g id="레이어_2" data-name="레이어 2"><g id="Layer_2" data-name="Layer 2"><path class="cls-1" d="M33.75,39v8.93a3,3,0,0,1-.9,2.16,2.81,2.81,0,0,1-1,.65,2.91,2.91,0,0,1-1.19.24H4.55a3,3,0,0,1-1.19-.24,3,3,0,0,1-1-.65,3.06,3.06,0,0,1-.65-1,3.12,3.12,0,0,1-.24-1.19V4.55a3.16,3.16,0,0,1,.24-1.19A3,3,0,0,1,3.36,1.74,3.16,3.16,0,0,1,4.55,1.5H30.69a3.08,3.08,0,0,1,1.19.24,3,3,0,0,1,1,.65,3.21,3.21,0,0,1,.66,1,3.16,3.16,0,0,1,.24,1.19v8.93"/><line class="cls-1" x1="13.77" y1="6.57" x2="21.48" y2="6.57"/><path class="cls-1" d="M20.77,42.37a3.15,3.15,0,1,1-3.15-3.15A3.15,3.15,0,0,1,20.77,42.37Z"/><path class="cls-2" d="M37.86,21.75A3.91,3.91,0,1,1,34,17.84,3.91,3.91,0,0,1,37.86,21.75Z"/><path class="cls-2" d="M25.22,35.33a8.74,8.74,0,1,1,17.47,0"/></g></g></svg>