<svg xmlns="http://www.w3.org/2000/svg" viewBox="0 0 54.78 52.42"><defs><style>.cls-1,.cls-2{fill:#fff;stroke-linecap:round;stroke-linejoin:round;stroke-width:3px;}.cls-1{stroke:#000;}.cls-2{stroke:#e13887;}.cls-3{fill:#e13887;}</style></defs><g id="레이어_2" data-name="레이어 2"><g id="Layer_2" data-name="Layer 2"><path class="cls-1" d="M47.39,16.42H38.67v6.93a5.89,5.89,0,0,1-5.89,5.89H16.11v9A5.89,5.89,0,0,0,22,44.16H46.52l6.76,6.76V22.31A5.89,5.89,0,0,0,47.39,16.42Z"/><path class="cls-2" d="M32.78,1.5H7.39A5.89,5.89,0,0,0,1.5,7.39V36l6.76-6.76H32.78a5.89,5.89,0,0,0,5.89-5.89v-16A5.89,5.89,0,0,0,32.78,1.5Z"/><circle class="cls-3" cx="15.36" cy="15.16" r="2.31"/><circle class="cls-3" cx="25.79" cy="15.16" r="2.31"/></g></g></svg>