<svg xmlns="http://www.w3.org/2000/svg" viewBox="0 0 51.77 51.77"><defs><style>.cls-1,.cls-2{fill:#fff;stroke-linecap:round;stroke-linejoin:round;stroke-width:3px;}.cls-1{stroke:#000;}.cls-2{stroke:#e13887;}</style></defs><g id="레이어_2" data-name="레이어 2"><g id="Layer_2" data-name="Layer 2"><rect class="cls-1" x="1.5" y="1.5" width="48.77" height="48.77" rx="3.9"/><path class="cls-2" d="M35.56,17.32a12.91,12.91,0,1,0,3.25,8.57A12.88,12.88,0,0,0,35.56,17.32Z"/><path class="cls-2" d="M29.71,17.32c-.94-2.67-2.3-4.36-3.82-4.36S23,14.65,22.07,17.32a26.62,26.62,0,0,0-1.29,8.57,26.6,26.6,0,0,0,1.29,8.56c.93,2.67,2.3,4.36,3.82,4.36s2.88-1.69,3.82-4.36A26.62,26.62,0,0,0,31,25.89,26.64,26.64,0,0,0,29.71,17.32Z"/><line class="cls-2" x1="13.48" y1="25.76" x2="38.19" y2="25.76"/></g></g></svg>