<svg xmlns="http://www.w3.org/2000/svg" viewBox="0 0 42.21 69.83"><defs><style>.cls-1,.cls-2{fill:#fff;stroke-linecap:round;stroke-linejoin:round;stroke-width:3px;}.cls-1{stroke:#000;}.cls-2{stroke:#e13887;}</style></defs><g id="레이어_2" data-name="레이어 2"><g id="Layer_2" data-name="Layer 2"><path class="cls-1" d="M24.5,65a3.38,3.38,0,0,1-3.38,3.38h0A3.38,3.38,0,0,1,17.73,65V62.24a3.38,3.38,0,0,1,3.38-3.38h0a3.38,3.38,0,0,1,3.39,3.38Z"/><path class="cls-1" d="M17.8,51h6.63a3.31,3.31,0,0,1,3.31,3.31v5a3.32,3.32,0,0,1-3.32,3.32H17.8a3.32,3.32,0,0,1-3.32-3.32v-5A3.31,3.31,0,0,1,17.8,51Z"/><path class="cls-1" d="M38.49,31.57A17.38,17.38,0,1,0,6.44,40.89c2,3.66,3.21,7.19,4.64,10.37a5.64,5.64,0,0,0,5.21,3.24H26a5.66,5.66,0,0,0,5.21-3.25c1.45-3.22,2.64-6.8,4.72-10.52A17.24,17.24,0,0,0,38.49,31.57Z"/><line class="cls-2" x1="21.11" y1="1.5" x2="21.11" y2="8.43"/><line class="cls-2" x1="1.5" y1="6.76" x2="4.97" y2="12.76"/><line class="cls-2" x1="37.24" y1="12.76" x2="40.71" y2="6.75"/><line class="cls-2" x1="21.11" y1="43.04" x2="21.11" y2="26.05"/></g></g></svg>