<svg xmlns="http://www.w3.org/2000/svg" viewBox="0 0 66.93 44.98"><defs><style>.cls-1,.cls-2{fill:#fff;stroke-linecap:round;stroke-linejoin:round;stroke-width:3px;}.cls-1{stroke:#000;}.cls-2{stroke:#e13887;}</style></defs><g id="레이어_2" data-name="레이어 2"><g id="Layer_2" data-name="Layer 2"><path class="cls-1" d="M1.5,34H64.61a.82.82,0,0,0,.82-.82V9.7c0-.45-9.17-7.58-9.17-7.58C56,1.78,2,1.5,1.5,1.5Z"/><path class="cls-1" d="M23.42,36.37a7.12,7.12,0,1,1-7.12-7.11A7.11,7.11,0,0,1,23.42,36.37Z"/><path class="cls-1" d="M58,36.37a7.12,7.12,0,1,1-7.12-7.11A7.11,7.11,0,0,1,58,36.37Z"/><line class="cls-2" x1="11.64" y1="12.59" x2="20.96" y2="12.59"/><line class="cls-2" x1="30.46" y1="12.59" x2="39.78" y2="12.59"/><line class="cls-2" x1="52.88" y1="19.3" x2="52.94" y2="12.59"/></g></g></svg>